<?xml version="1.0" encoding="utf-8"?>
<!-- Svg Vector Icons : http://www.onlinewebfonts.com/icon -->
<!DOCTYPE svg PUBLIC "-//W3C//DTD SVG 1.1//EN" "http://www.w3.org/Graphics/SVG/1.1/DTD/svg11.dtd">
<svg version="1.1" xmlns="http://www.w3.org/2000/svg" xmlns:xlink="http://www.w3.org/1999/xlink" x="0px" y="0px" viewBox="0 0 256 256" enable-background="new 0 0 256 256" xml:space="preserve">
<metadata> Svg Vector Icons : http://www.onlinewebfonts.com/icon </metadata>
<g><g><path fill="#000000" d="M211.8,132.1l-38.1-15.3V86.3L211.8,71c4.2,0,7.6,3.4,7.6,7.6v45.8C219.4,128.7,216,132.1,211.8,132.1z M139.5,78.7c-18.9,0-34.3-15.4-34.3-34.3c0-19,15.4-34.3,34.3-34.3c18.9,0,34.3,15.4,34.3,34.3C173.7,63.3,158.4,78.7,139.5,78.7z M70.9,78.7c-18.9,0-34.3-15.4-34.3-34.3C36.6,25.4,52,10,70.9,10c18.9,0,34.3,15.4,34.3,34.3C105.2,63.3,89.8,78.7,70.9,78.7z M166.1,78.7v68.7h-42.5c-0.4,6.3-3.2,11.8-7.3,14.9h4.3l30.4,68.5h-7.6l-10.1-22.9H113V246h-7.6v-38.1H84.9l-10.3,22.9H67l30.9-68.5h2.9c-4.1-3.1-6.9-8.5-7.3-14.9H44.2V78.7h26.7h68.6H166.1z M105.4,164.6c-0.3-0.1-0.6-0.2-0.9-0.3l-16.2,36h17.1V164.6z M113,164.1v36.2h16.9l-16.2-36.5C113.5,163.9,113.2,164,113,164.1z"/></g></g>
</svg>