<?xml version="1.0" standalone="no"?>
<!DOCTYPE svg PUBLIC "-//W3C//DTD SVG 20010904//EN"
 "http://www.w3.org/TR/2001/REC-SVG-20010904/DTD/svg10.dtd">
<svg version="1.0" xmlns="http://www.w3.org/2000/svg"
 width="300.000000pt" height="59.000000pt" viewBox="0 0 300.000000 59.000000"
 preserveAspectRatio="xMidYMid meet">
<metadata>
Created by potrace 1.10, written by Peter Selinger 2001-2011
</metadata>
<g transform="translate(0.000000,59.000000) scale(0.100000,-0.100000)"
fill="#000000" stroke="none">
<path d="M75 456 c4 -34 10 -92 15 -131 5 -38 12 -107 16 -152 l7 -82 46 6
c25 3 48 7 50 9 2 2 6 71 9 153 3 83 9 151 13 151 5 0 9 -12 9 -27 3 -141 8
-274 11 -276 2 -2 25 -2 51 1 43 4 47 6 46 30 0 27 27 271 39 345 l6 38 -33
-3 c-30 -3 -34 -6 -36 -38 -3 -27 -11 -234 -14 -318 0 -8 -6 -12 -13 -10 -8 3
-12 35 -13 109 -1 57 -4 138 -8 180 l-8 75 -33 0 c-26 0 -35 -5 -39 -20 -4
-17 -17 -233 -20 -326 -1 -39 -30 -32 -34 9 -3 24 0 31 9 26 12 -8 11 30 -7
236 l-7 75 -34 0 -34 0 6 -60z"/>
<path d="M420 319 l0 -199 35 0 35 0 0 84 0 84 35 4 35 4 0 -83 0 -83 35 0 35
0 0 195 0 195 -35 0 -35 0 0 -85 0 -85 -35 0 -35 0 0 84 0 84 -35 0 -35 0 0
-199z"/>
<path d="M720 512 c0 -8 -12 -80 -39 -232 -27 -151 -27 -147 9 -142 17 2 31
11 31 18 1 8 3 19 4 24 1 6 3 15 4 20 0 6 19 10 41 10 33 0 40 -4 41 -20 1
-11 2 -26 3 -32 1 -12 76 -26 76 -15 0 3 -7 40 -15 83 -9 44 -20 106 -26 139
-6 33 -15 81 -21 107 l-10 47 -49 -1 c-27 0 -49 -3 -49 -6z m71 -71 c-14 -9
-12 -81 5 -153 6 -26 4 -28 -26 -28 -32 0 -32 0 -25 38 4 20 9 65 10 98 3 76
11 92 34 70 13 -14 14 -18 2 -25z"/>
<path d="M870 489 c0 -26 3 -29 35 -29 l35 0 0 -155 0 -155 35 0 35 0 0 155 0
155 35 0 c32 0 35 3 35 29 l0 29 -105 0 -105 0 0 -29z"/>
<path d="M1172 490 c1 -28 3 -30 41 -30 l40 0 -6 -150 -7 -150 35 0 35 0 0
150 0 150 35 0 c32 0 35 2 35 30 l0 30 -104 0 -105 0 1 -30z"/>
<path d="M1430 500 c-28 -28 -32 -54 -28 -183 3 -129 14 -152 74 -163 41 -7
101 11 114 36 11 21 13 279 2 296 -25 38 -129 47 -162 14z m98 -42 c8 -8 12
-48 12 -113 0 -108 -11 -140 -46 -133 -17 3 -19 14 -22 118 -1 62 0 120 2 127
7 16 38 17 54 1z"/>
<path d="M1724 485 c8 -43 23 -164 32 -257 l7 -66 48 -4 c43 -3 49 -1 50 17 0
22 5 59 14 122 3 23 2 44 -3 47 -6 3 -7 20 -2 40 4 19 5 37 2 40 -3 4 0 6 6 6
16 0 26 -44 18 -81 -3 -17 -3 -69 1 -115 l6 -84 47 0 47 0 7 68 c7 82 22 202
32 260 6 42 6 42 -24 42 -34 0 -33 1 -52 -180 -7 -67 -6 -96 2 -101 14 -9 2
-42 -13 -37 -7 2 -13 38 -14 93 -2 50 -6 120 -10 158 l-7 67 -33 0 -32 0 -12
-102 c-6 -57 -13 -128 -14 -158 -1 -41 -6 -55 -17 -55 -9 0 -16 11 -18 29 -3
20 0 26 9 21 12 -8 9 87 -8 218 -5 46 -6 47 -40 47 -35 0 -35 0 -29 -35z"/>
<path d="M2106 493 c-3 -16 -17 -91 -31 -168 -14 -77 -27 -147 -29 -157 -3
-12 5 -17 30 -20 32 -4 34 -2 34 27 0 40 1 41 49 37 39 -4 41 -6 41 -38 0 -33
1 -34 39 -34 l39 0 -13 67 c-7 38 -23 123 -35 191 l-22 122 -48 0 c-45 0 -49
-2 -54 -27z m72 -36 c4 -19 -6 -21 -27 -8 -16 10 -5 34 12 28 7 -2 13 -11 15
-20z m-5 -89 c4 -35 8 -72 9 -82 2 -14 -4 -19 -24 -20 -21 -1 -28 3 -28 16 0
36 24 157 31 153 3 -3 9 -33 12 -67z"/>
<path d="M2260 488 c0 -25 3 -28 35 -28 l35 0 0 -165 0 -165 35 0 35 0 0 165
0 165 35 0 c32 0 35 3 35 28 l0 27 -105 0 -105 0 0 -27z"/>
<path d="M2515 495 c-24 -23 -25 -28 -25 -175 l0 -152 29 -29 c23 -22 39 -29
69 -29 58 0 84 25 92 91 4 30 6 57 3 62 -2 4 -17 7 -34 7 -27 0 -29 -3 -29
-37 0 -47 -12 -66 -36 -61 -17 3 -19 15 -22 146 l-3 143 28 -3 c24 -3 28 -8
31 -40 3 -36 5 -38 37 -38 l35 0 -6 48 c-8 63 -39 92 -100 92 -34 0 -51 -6
-69 -25z"/>
<path d="M2722 311 l3 -206 33 -3 32 -3 0 89 0 89 35 1 35 1 0 -94 0 -95 35 0
35 0 0 213 0 213 -35 0 -35 0 0 -91 0 -91 -35 4 -35 4 0 87 0 87 -35 0 -35 0
2 -205z m178 -12 c0 -20 -15 -26 -25 -9 -9 15 3 43 15 35 5 -3 10 -15 10 -26z"/>
</g>
</svg>
